<svg id="b39b9419-ae99-4c13-93e4-1ee6186d40d2" data-name="Calque 1" xmlns="http://www.w3.org/2000/svg" viewBox="0 0 263.32 86.71"><path d="M145,25.34v9.8h-27.1v-9.8a7.66,7.66,0,0,1-7.8-7.77,7.66,7.66,0,0,1,7.8-7.77,7.9,7.9,0,0,1,7.11,4.39l3.39-1.69a11.72,11.72,0,0,0-3.73-4.39,7.75,7.75,0,0,1,14.57,3.72,8.93,8.93,0,0,1-1,4.05l3.39,2a11.62,11.62,0,0,0,1.7-6.08V10.14a4.25,4.25,0,0,1,2-.34,7.66,7.66,0,0,1,7.79,7.77A7.94,7.94,0,0,1,145,25.34Zm0,17.57h-27.1V39.2H145Zm0-36.83c-1,0-2,.34-3.39.34A11.74,11.74,0,0,0,131.49,0a10.81,10.81,0,0,0-10.17,6.42,10.36,10.36,0,0,0-3.38-.34,11.45,11.45,0,0,0-3.73,22.3V46.29h34.9V28.72a11.71,11.71,0,0,0,7.79-10.81A12,12,0,0,0,145,6.08Zm-17.28,25H124V23.65h3.73Zm11.52,0h-3.73V23.65h3.73Z" style="fill:#d0504f;fill-rule:evenodd"/><path d="M0,78.79V53.59H4.61v21.6H15.77v3.6Zm27.59.43a9.73,9.73,0,0,1-4.79-1.15,8.44,8.44,0,0,1-3.28-3.24A9.59,9.59,0,0,1,18.34,70a10.28,10.28,0,0,1,1.15-4.93,8.5,8.5,0,0,1,3.24-3.35,9.45,9.45,0,0,1,4.89-1.23,9.2,9.2,0,0,1,4.65,1.16,8.06,8.06,0,0,1,3.13,3.16,8.63,8.63,0,0,1,1.15,4.43c0,.27,0,.54,0,.83s0,.59,0,.9H22.91a4.47,4.47,0,0,0,4.64,4.46,4.16,4.16,0,0,0,2.34-.61,3.94,3.94,0,0,0,1.44-1.65H36a8.45,8.45,0,0,1-1.69,3.09,8.22,8.22,0,0,1-2.88,2.16A9,9,0,0,1,27.59,79.22Zm0-15a4.82,4.82,0,0,0-3,1A4.31,4.31,0,0,0,23,68.1h8.89a3.89,3.89,0,0,0-1.29-2.81A4.36,4.36,0,0,0,27.62,64.25Zm20.19,15a10.79,10.79,0,0,1-4.18-.75,7.4,7.4,0,0,1-2.88-2.16,6.16,6.16,0,0,1-1.29-3.17H44.1a3.06,3.06,0,0,0,1.15,1.8,4.08,4.08,0,0,0,2.49.72,3.22,3.22,0,0,0,2.19-.61,1.82,1.82,0,0,0,.72-1.41,1.5,1.5,0,0,0-1-1.54,15.62,15.62,0,0,0-2.8-.83c-.77-.17-1.55-.37-2.34-.61a11.77,11.77,0,0,1-2.2-.9,5.11,5.11,0,0,1-1.58-1.44,3.82,3.82,0,0,1-.62-2.2,5.1,5.1,0,0,1,1.88-4A8,8,0,0,1,47.3,60.5a7.92,7.92,0,0,1,5,1.48,5.92,5.92,0,0,1,2.27,4.07H50.26c-.27-1.32-1.26-2-3-2a3.53,3.53,0,0,0-2,.5,1.53,1.53,0,0,0-.68,1.26c0,.53.35,1,1,1.26a16.09,16.09,0,0,0,2.77.87,30.73,30.73,0,0,1,3.42,1,5.44,5.44,0,0,1,2.52,1.55,4.09,4.09,0,0,1,.94,2.91,5,5,0,0,1-.86,3,6,6,0,0,1-2.6,2.09A9.76,9.76,0,0,1,47.81,79.22Zm20.11,7.49V60.94H72l.51,2.55A8.19,8.19,0,0,1,74.8,61.4a6.87,6.87,0,0,1,3.7-.9A8.35,8.35,0,0,1,83,61.73a8.74,8.74,0,0,1,3.14,3.35,10.68,10.68,0,0,1,0,9.64A8.87,8.87,0,0,1,83,78a8.59,8.59,0,0,1-4.5,1.18A7.8,7.8,0,0,1,75,78.47a6.32,6.32,0,0,1-2.45-2.13V86.71Zm9.61-11.52a4.88,4.88,0,0,0,3.64-1.47,5.25,5.25,0,0,0,1.44-3.82,5.36,5.36,0,0,0-1.44-3.85,5.18,5.18,0,0,0-7.31,0,5.27,5.27,0,0,0-1.4,3.81,5.44,5.44,0,0,0,1.4,3.86A4.91,4.91,0,0,0,77.53,75.19Zm22.55,4a9.73,9.73,0,0,1-4.79-1.15A8.35,8.35,0,0,1,92,74.83,9.49,9.49,0,0,1,90.83,70,10.28,10.28,0,0,1,92,65.08a8.5,8.5,0,0,1,3.24-3.35,9.46,9.46,0,0,1,4.9-1.23,9.16,9.16,0,0,1,4.64,1.16,8.06,8.06,0,0,1,3.13,3.16A8.63,8.63,0,0,1,109,69.25c0,.27,0,.54,0,.83s0,.59,0,.9H95.4a4.75,4.75,0,0,0,1.44,3.28,4.66,4.66,0,0,0,3.2,1.18,4.16,4.16,0,0,0,2.34-.61,3.94,3.94,0,0,0,1.44-1.65h4.68a8.45,8.45,0,0,1-1.69,3.09,8.22,8.22,0,0,1-2.88,2.16A9,9,0,0,1,100.08,79.22Zm0-15a4.83,4.83,0,0,0-3,1,4.31,4.31,0,0,0-1.66,2.88h8.89a3.89,3.89,0,0,0-1.29-2.81A4.34,4.34,0,0,0,100.12,64.25Zm20.44,14.54a6.91,6.91,0,0,1-4.5-1.37q-1.69-1.36-1.69-4.86V64.79h-3.06V60.94h3.06l.54-4.79H119v4.79h4.83v3.85H119V72.6a2.42,2.42,0,0,0,.54,1.8,3.17,3.17,0,0,0,1.95.47h2.23v3.92Zm9.68-20.63a3,3,0,0,1-2.09-.75,2.53,2.53,0,0,1-.79-1.91,2.4,2.4,0,0,1,.79-1.87,3,3,0,0,1,2.09-.76,2.83,2.83,0,0,1,2,.76,2.36,2.36,0,0,1,.83,1.87,2.49,2.49,0,0,1-.83,1.91A2.86,2.86,0,0,1,130.24,58.16Zm-2.31,20.63V60.94h4.61V78.79Zm17.38,0a6.91,6.91,0,0,1-4.5-1.37q-1.69-1.36-1.69-4.86V64.79h-3.06V60.94h3.06l.54-4.79h4.06v4.79h4.83v3.85h-4.83V72.6a2.42,2.42,0,0,0,.54,1.8,3.17,3.17,0,0,0,2,.47h2.23v3.92Zm14.57.43a10.78,10.78,0,0,1-4.17-.75,7.4,7.4,0,0,1-2.88-2.16,6.26,6.26,0,0,1-1.3-3.17h4.65a3,3,0,0,0,1.15,1.8,4.05,4.05,0,0,0,2.48.72,3.25,3.25,0,0,0,2.2-.61,1.82,1.82,0,0,0,.72-1.41,1.51,1.51,0,0,0-1-1.54,15.77,15.77,0,0,0-2.81-.83c-.77-.17-1.55-.37-2.34-.61a12,12,0,0,1-2.19-.9,5.26,5.26,0,0,1-1.59-1.44,3.82,3.82,0,0,1-.61-2.2,5.09,5.09,0,0,1,1.87-4A9.45,9.45,0,0,1,164.42,62a6,6,0,0,1,2.27,4.07h-4.36c-.26-1.32-1.26-2-3-2a3.51,3.51,0,0,0-2,.5,1.52,1.52,0,0,0-.69,1.26q0,.8,1.05,1.26a15.81,15.81,0,0,0,2.77.87,30.73,30.73,0,0,1,3.42,1,5.44,5.44,0,0,1,2.52,1.55,4.14,4.14,0,0,1,.94,2.91,5,5,0,0,1-.87,3,6,6,0,0,1-2.59,2.09A9.81,9.81,0,0,1,159.88,79.22ZM180,86.71V60.94h4.1l.51,2.55a8.29,8.29,0,0,1,2.26-2.09,6.91,6.91,0,0,1,3.71-.9,8.35,8.35,0,0,1,4.5,1.23,8.64,8.64,0,0,1,3.13,3.35,10.59,10.59,0,0,1,0,9.64A8.77,8.77,0,0,1,195.08,78a8.59,8.59,0,0,1-4.5,1.18,7.87,7.87,0,0,1-3.53-.75,6.36,6.36,0,0,1-2.44-2.13V86.71Zm9.61-11.52a4.89,4.89,0,0,0,3.64-1.47,5.25,5.25,0,0,0,1.44-3.82,5.36,5.36,0,0,0-1.44-3.85,5.18,5.18,0,0,0-7.31,0,5.28,5.28,0,0,0-1.41,3.81,5.45,5.45,0,0,0,1.41,3.86A4.91,4.91,0,0,0,189.61,75.19Zm13.87,3.6V52.87h4.61V78.79Zm15.47.43a8.67,8.67,0,0,1-3.78-.72,5.07,5.07,0,0,1-2.91-4.68,4.93,4.93,0,0,1,1.94-4q2-1.55,5.83-1.55h4.54v-.43a3.33,3.33,0,0,0-1-2.7,4,4,0,0,0-2.6-.86,4.38,4.38,0,0,0-2.44.68,2.8,2.8,0,0,0-1.3,1.95h-4.5a6.32,6.32,0,0,1,1.3-3.39,7.24,7.24,0,0,1,2.95-2.19,9.86,9.86,0,0,1,4-.8,8.86,8.86,0,0,1,6,1.91,6.75,6.75,0,0,1,2.2,5.4v11h-3.93l-.43-2.88a6.67,6.67,0,0,1-2.23,2.38A6.49,6.49,0,0,1,219,79.22Zm1.05-3.6a3.77,3.77,0,0,0,3.06-1.29,6.24,6.24,0,0,0,1.4-3.21h-3.92a4,4,0,0,0-2.63.69,2,2,0,0,0-.79,1.62,1.89,1.89,0,0,0,.79,1.62A3.5,3.5,0,0,0,220,75.62Zm21.29,3.17a6.87,6.87,0,0,1-4.5-1.37q-1.69-1.36-1.7-4.86V64.79H232V60.94h3.06l.54-4.79h4.07v4.79h4.83v3.85H239.7V72.6a2.42,2.42,0,0,0,.54,1.8,3.15,3.15,0,0,0,1.95.47h2.23v3.92Zm14.57.43a10.78,10.78,0,0,1-4.17-.75,7.4,7.4,0,0,1-2.88-2.16,6.17,6.17,0,0,1-1.3-3.17h4.64a3.08,3.08,0,0,0,1.16,1.8,4,4,0,0,0,2.48.72,3.25,3.25,0,0,0,2.2-.61,1.82,1.82,0,0,0,.72-1.41,1.51,1.51,0,0,0-1-1.54,15.77,15.77,0,0,0-2.81-.83c-.77-.17-1.55-.37-2.34-.61a12.36,12.36,0,0,1-2.2-.9,5.34,5.34,0,0,1-1.58-1.44,3.82,3.82,0,0,1-.61-2.2,5.09,5.09,0,0,1,1.87-4A9.45,9.45,0,0,1,260.4,62a6,6,0,0,1,2.27,4.07h-4.36c-.26-1.32-1.26-2-3-2a3.51,3.51,0,0,0-2,.5,1.52,1.52,0,0,0-.69,1.26q0,.8,1,1.26a15.81,15.81,0,0,0,2.77.87,30.73,30.73,0,0,1,3.42,1,5.54,5.54,0,0,1,2.52,1.55,4.14,4.14,0,0,1,.93,2.91,5,5,0,0,1-.86,3,6,6,0,0,1-2.59,2.09A9.81,9.81,0,0,1,255.86,79.22Z" style="fill:#d0504f"/></svg>